<svg xmlns="http://www.w3.org/2000/svg" viewBox="0 0 168.54 40.78"><defs><style>.cls-1,.cls-2{fill:#fff;}.cls-2{fill-rule:evenodd;}</style></defs><g id="Livello_2" data-name="Livello 2"><g id="logo-53"><path class="cls-1" d="M50.57,28.39h12v-3.6h-7.7V11.23H50.57Z"/><path class="cls-1" d="M69.6,26C67.9,26,67,24.5,67,22.27s.89-3.74,2.59-3.74,2.62,1.51,2.62,3.74S71.3,26,69.6,26Zm0,2.79a6.27,6.27,0,0,0,6.56-6.51,6.57,6.57,0,0,0-13.13,0A6.3,6.3,0,0,0,69.62,28.78Z"/><path class="cls-1" d="M83,32.64a6.72,6.72,0,0,0,4.51-1.37,5.25,5.25,0,0,0,1.63-4.08V16.1H85.43v1.32h-.05a3.94,3.94,0,0,0-3.45-1.68c-3.05,0-5.16,2.55-5.16,6.15,0,3.77,2.56,5.83,5.32,5.83a3.92,3.92,0,0,0,3.15-1.42h.09v1.23A2.07,2.07,0,0,1,83,29.88c-1.29,0-1.94-.55-2.16-1.2H77C77.41,31.25,79.65,32.64,83,32.64Zm0-7.82c-1.47,0-2.43-1.2-2.43-3.05s1-3.07,2.43-3.07c1.63,0,2.49,1.39,2.49,3S84.71,24.82,83,24.82Z"/><path class="cls-1" d="M96.87,26c-1.7,0-2.59-1.49-2.59-3.72s.89-3.74,2.59-3.74,2.62,1.51,2.62,3.74S98.58,26,96.87,26Zm0,2.79a6.26,6.26,0,0,0,6.55-6.51,6.57,6.57,0,0,0-13.13,0A6.3,6.3,0,0,0,96.9,28.78Z"/><path class="cls-1" d="M104.59,28.39h3.91V16.1h-3.91Zm0-14h3.91V11.23h-3.91Z"/><path class="cls-1" d="M110.2,32.45h3.91V27.12h0a4.11,4.11,0,0,0,3.48,1.66c3.22,0,5.35-2.55,5.35-6.53,0-3.7-2-6.51-5.25-6.51A4.48,4.48,0,0,0,114,17.59H114V16.1H110.2Zm6.43-6.7c-1.68,0-2.64-1.37-2.64-3.36s.87-3.5,2.57-3.5,2.47,1.39,2.47,3.5S118.12,25.75,116.63,25.75Z"/><path class="cls-1" d="M129.36,28.78c3.22,0,5.59-1.4,5.59-4.08,0-3.15-2.54-3.7-4.7-4.06-1.56-.29-3-.41-3-1.27s.74-1.13,1.7-1.13,1.83.34,2,1.44h3.6c-.19-2.42-2.06-3.94-5.54-3.94-2.91,0-5.31,1.35-5.31,3.94,0,2.88,2.28,3.46,4.42,3.82,1.63.28,3.12.4,3.12,1.51,0,.79-.75,1.22-1.92,1.22a2,2,0,0,1-2.26-1.82h-3.69C123.51,27.12,125.76,28.78,129.36,28.78Z"/><path class="cls-1" d="M140.27,28.75a4.2,4.2,0,0,0,3.67-1.87H144v1.51h3.75V16.1h-3.92V23a2.18,2.18,0,0,1-2.16,2.47c-1.24,0-1.84-.74-1.84-2.09V16.1H136v8.07C136,26.9,137.44,28.75,140.27,28.75Z"/><path class="cls-1" d="M149.46,28.39h3.91V21.5c0-1.46.72-2.49,1.94-2.49s1.73.77,1.73,2.09v7.29H161V21.5c0-1.46.7-2.49,2-2.49s1.73.77,1.73,2.09v7.29h3.91v-8c0-2.76-1.39-4.66-4.18-4.66a4.39,4.39,0,0,0-3.86,2.16h-.05A3.68,3.68,0,0,0,157,15.74a4.1,4.1,0,0,0-3.72,2.12h-.07V16.1h-3.74Z"/><path class="cls-2" d="M20.39,0A20.39,20.39,0,1,1,0,20.39,20.39,20.39,0,0,1,20.39,0ZM40,20.39A19.61,19.61,0,0,0,20.39.78,20.08,20.08,0,0,0,17.81,1c.55,0,1.1-.07,1.66-.07A18.74,18.74,0,1,1,.8,21.25,19.61,19.61,0,0,0,40,20.39Zm-2.58-.77a18,18,0,0,0-18-18,17,17,0,0,0-2.38.16c.48,0,1-.06,1.45-.06a17.08,17.08,0,1,1-17,18.6,18,18,0,0,0,35.89-.74ZM18.54,2.54A16.3,16.3,0,1,1,2.26,19.46,15.43,15.43,0,1,0,17.62,2.64c-.44,0-.88,0-1.31,0A16.49,16.49,0,0,1,18.54,2.54ZM32.27,18.06A14.64,14.64,0,0,0,17.62,3.42a13.31,13.31,0,0,0-2,.14c.36,0,.72-.05,1.09-.05A13.78,13.78,0,1,1,3,18.61a14.65,14.65,0,0,0,29.28-.55ZM16.7,4.3a13,13,0,1,1-13,13.41A12.12,12.12,0,1,0,15.77,4.39c-.3,0-.61,0-.91,0A13.87,13.87,0,0,1,16.7,4.3ZM27.11,16.51A11.34,11.34,0,0,0,15.77,5.17a11.66,11.66,0,0,0-1.68.13c.25,0,.5,0,.76,0A10.47,10.47,0,1,1,4.44,16.81a11.34,11.34,0,0,0,22.67-.3ZM14.85,6.05a9.68,9.68,0,1,1-9.68,9.89,8.81,8.81,0,1,0,8.76-9.79h-.56A10.31,10.31,0,0,1,14.85,6.05ZM22,15A8,8,0,0,0,12.62,7H13a7.16,7.16,0,1,1-7.1,8A8,8,0,0,0,22,15ZM13,7.81a6.37,6.37,0,1,1-6.37,6.37v0A5.5,5.5,0,1,0,12.08,7.9h-.21A6.09,6.09,0,0,1,13,7.81Zm3.8,5.59a4.72,4.72,0,1,0-4.72,4.72A4.72,4.72,0,0,0,16.8,13.4Z"/></g></g></svg>